<svg viewBox="0 0 32 32" xmlns="http://www.w3.org/2000/svg">
  <!-- Background circle (eyeball) -->
  <circle cx="16" cy="16" r="14" fill="#e0e0e0" stroke="#404040" stroke-width="1" />
  
  <!-- Iris -->
  <circle cx="16" cy="16" r="7" fill="#2196f3" stroke="#0d47a1" stroke-width="0.5" />
  
  <!-- Pupil -->
  <circle cx="16" cy="16" r="3.5" fill="#000000" />
  
  <!-- Light reflection -->
  <circle cx="14" cy="14" r="1.5" fill="#ffffff" />
  
  <!-- Circuit lines -->
  <path d="M2,16 H8" stroke="#2196f3" stroke-width="1" />
  <path d="M24,16 H30" stroke="#2196f3" stroke-width="1" />
  <path d="M16,2 V8" stroke="#2196f3" stroke-width="1" />
  <path d="M16,24 V30" stroke="#2196f3" stroke-width="1" />
  
  <!-- Electronic components -->
  <rect x="7" y="15" width="2" height="2" fill="#ff5722" />
  <rect x="23" y="15" width="2" height="2" fill="#ff5722" />
  <rect x="15" y="7" width="2" height="2" fill="#ff5722" />
  <rect x="15" y="23" width="2" height="2" fill="#ff5722" />
  
  <!-- Additional circuit details -->
  <path d="M5,12 C8,8 12,5 16,5" stroke="#2196f3" stroke-width="0.75" fill="none" />
  <path d="M27,12 C24,8 20,5 16,5" stroke="#2196f3" stroke-width="0.75" fill="none" />
  <path d="M5,20 C8,24 12,27 16,27" stroke="#2196f3" stroke-width="0.75" fill="none" />
  <path d="M27,20 C24,24 20,27 16,27" stroke="#2196f3" stroke-width="0.75" fill="none" />
  
  <!-- Mechanical Eyelid Hints -->
  <path d="M4,16 C4,9 9,4 16,4" stroke="#404040" stroke-width="1" fill="none" />
  <path d="M28,16 C28,9 23,4 16,4" stroke="#404040" stroke-width="1" fill="none" />
</svg>
